<?xml version="1.0" standalone="no"?>
<!DOCTYPE svg PUBLIC "-//W3C//DTD SVG 20010904//EN"
 "http://www.w3.org/TR/2001/REC-SVG-20010904/DTD/svg10.dtd">
<svg version="1.0" xmlns="http://www.w3.org/2000/svg"
 width="680.000000pt" height="680.000000pt" viewBox="0 0 680.000000 680.000000"
 preserveAspectRatio="xMidYMid meet">
<metadata>
Created by potrace 1.14, written by Peter Selinger 2001-2017
</metadata>
<g transform="translate(0.000000,680.000000) scale(0.100000,-0.100000)"
fill="#000000" stroke="none">
<path d="M2323 5404 c-167 -34 -326 -180 -377 -347 -23 -73 -31 -184 -24 -325
2 -28 0 -52 -4 -52 -3 0 -3 -12 1 -27 4 -16 5 -41 1 -58 -3 -16 -4 -41 0 -55
3 -14 3 -41 0 -60 -3 -19 -3 -48 0 -65 3 -16 3 -42 -1 -57 -4 -16 -5 -28 -1
-28 6 0 7 -125 1 -140 -1 -3 0 -9 1 -15 1 -5 3 -50 5 -100 8 -204 53 -380 148
-570 38 -77 106 -185 134 -213 7 -7 13 -17 13 -22 0 -19 221 -228 291 -275 41
-27 77 -54 81 -60 4 -5 8 -7 8 -3 0 4 16 -4 36 -17 20 -14 43 -25 50 -25 7 0
14 -4 16 -8 7 -18 242 -102 327 -117 19 -3 37 -7 40 -9 31 -19 537 -28 656
-12 117 15 110 17 111 -39 2 -73 -20 -136 -67 -189 -54 -61 -115 -89 -204 -93
-38 -1 -72 -3 -75 -4 -3 -1 -8 -1 -12 0 -4 0 -54 1 -110 0 -57 0 -112 0 -123
0 -560 2 -861 -1 -905 -9 -130 -24 -274 -126 -345 -245 -31 -52 -41 -76 -63
-155 -10 -38 -7 -190 5 -237 31 -118 141 -269 228 -313 17 -8 32 -18 35 -21 3
-3 32 -17 65 -29 60 -24 64 -24 545 -27 267 -1 528 -3 580 -3 128 -1 339 7
370 14 14 3 41 8 61 11 36 4 187 48 224 65 11 5 42 18 68 30 162 71 370 231
465 359 15 20 32 41 38 46 20 19 99 150 133 220 76 157 118 331 127 514 3 63
7 118 10 123 3 4 2 8 -3 8 -10 0 -8 123 1 139 4 6 4 11 -1 11 -4 0 -8 40 -8
90 0 49 4 90 8 90 5 0 5 5 2 10 -9 15 -10 104 -1 118 4 7 4 12 -1 12 -4 0 -8
40 -8 90 0 49 4 90 8 90 5 0 5 5 2 10 -9 15 -10 104 -1 118 4 7 4 12 -1 12 -4
0 -8 40 -8 90 0 49 3 90 7 90 4 0 4 10 0 23 -9 28 -9 88 1 104 4 6 4 14 0 16
-5 3 -7 27 -6 54 3 65 3 151 1 193 -1 20 1 43 5 53 3 9 3 17 -1 17 -4 0 -7 40
-7 90 0 49 4 90 8 90 5 0 5 5 2 10 -9 15 -10 104 -1 118 4 7 4 12 -1 12 -4 0
-8 38 -8 85 0 47 4 85 8 85 5 0 5 5 1 11 -9 15 -11 120 -1 126 4 2 5 9 1 14
-3 6 -7 43 -9 82 -8 214 -135 386 -346 469 -44 17 -76 21 -174 21 -120 0 -120
0 -205 -40 -91 -43 -114 -59 -163 -111 -44 -46 -107 -143 -107 -164 0 -10 -4
-18 -8 -18 -5 0 -9 -6 -10 -12 0 -7 -3 -24 -7 -38 -17 -71 -25 -196 -12 -222
4 -10 4 -18 0 -18 -10 0 -10 -41 0 -57 4 -7 4 -14 0 -16 -5 -3 -7 -36 -5 -74
3 -82 3 -31 -1 -383 l-3 -295 -30 -50 c-35 -59 -112 -120 -163 -131 -59 -13
-351 -12 -401 1 -149 39 -258 162 -275 310 -3 32 -8 62 -9 65 -2 3 0 14 4 25
4 11 4 30 -1 41 -4 12 -5 24 -2 28 8 8 9 145 1 139 -5 -2 -4 6 1 19 5 13 5 33
-1 47 -5 15 -5 28 0 33 5 5 6 25 2 43 -4 19 -5 36 -3 39 9 8 9 145 1 140 -4
-3 -4 5 1 18 5 13 5 33 0 46 -5 13 -6 29 -2 35 10 16 4 139 -12 217 -9 46 -74
166 -116 214 -127 144 -308 201 -506 160z"/>
</g>
</svg>
